<?xml version="1.0" encoding="utf-8"?>
<!-- Generator: Adobe Illustrator 26.2.1, SVG Export Plug-In . SVG Version: 6.00 Build 0)  -->
<svg version="1.1" id="Layer_1" xmlns="http://www.w3.org/2000/svg" xmlns:xlink="http://www.w3.org/1999/xlink" x="0px" y="0px"
	 viewBox="0 0 24 24" style="enable-background:new 0 0 24 24;" xml:space="preserve">
<style type="text/css">
	.st0{fill:#9798A0;}
</style>
<path class="st0" d="M19.2,2c-0.7,0-1.5,0.3-2,0.8L16,4l4,4l1.2-1.2c1.1-1.1,1.1-2.9,0-4C20.6,2.3,19.9,2,19.2,2z M14.5,5.5L5,15
	c0,0,1,0,1.5,0.5S7,17,7,17s1,0,1.5,0.5S9,19,9,19l9.5-9.5L14.5,5.5z M3.7,17L3,20.5c0,0.2,0.1,0.4,0.3,0.5c0.1,0,0.1,0,0.2,0
	L7,20.3L3.7,17z"/>
</svg>
