<svg xmlns="http://www.w3.org/2000/svg" width="32" height="32" viewBox="0 0 24 24"><path style="stroke:none;fill-rule:nonzero;fill:#828490;fill-opacity:1" d="M10.488 2c-.476 0-.886.34-.98.809l-.332 1.714a7.966 7.966 0 0 0-2.246 1.29L5.285 5.25a1 1 0 0 0-1.191.445l-1.508 2.61c-.238.418-.152.945.21 1.258l1.317 1.144A7.84 7.84 0 0 0 4 12c0 .441.043.871.113 1.293l-1.316 1.145a.998.998 0 0 0-.211 1.253l1.508 2.618a1 1 0 0 0 1.191.445l1.645-.567c.668.547 1.425.981 2.246 1.29l.332 1.714c.094.47.504.809.98.809h3.024c.476 0 .886-.34.976-.809l.336-1.714a7.966 7.966 0 0 0 2.246-1.29l1.645.563a.997.997 0 0 0 1.191-.441l1.508-2.618a.998.998 0 0 0-.21-1.254l-1.317-1.144A7.84 7.84 0 0 0 20 12a7.84 7.84 0 0 0-.113-1.293l1.316-1.145c.363-.312.45-.84.211-1.257l-1.508-2.61a.996.996 0 0 0-1.191-.449l-1.645.566a7.966 7.966 0 0 0-2.246-1.289l-.336-1.714A.996.996 0 0 0 13.512 2ZM12 8c2.21 0 4 1.79 4 4s-1.79 4-4 4-4-1.79-4-4 1.79-4 4-4Zm0 0"/></svg>