<?xml version="1.0" encoding="utf-8"?>
<!-- Generator: Adobe Illustrator 26.2.1, SVG Export Plug-In . SVG Version: 6.00 Build 0)  -->
<svg version="1.1" id="Layer_1" xmlns="http://www.w3.org/2000/svg" xmlns:xlink="http://www.w3.org/1999/xlink" x="0px" y="0px"
	 viewBox="0 0 24 24" style="enable-background:new 0 0 24 24;" xml:space="preserve">
<style type="text/css">
	.st0{fill:#3CBA8E;}
</style>
<path class="st0" d="M10.8,2c-0.5,0-1,0.2-1.4,0.6L9,3H4C3.6,3,3.3,3.2,3.1,3.5c-0.2,0.3-0.2,0.7,0,1C3.3,4.8,3.6,5,4,5h16
	c0.4,0,0.7-0.2,0.9-0.5c0.2-0.3,0.2-0.7,0-1C20.7,3.2,20.4,3,20,3h-5l-0.4-0.4C14.2,2.2,13.7,2,13.2,2H10.8z M4.4,7l1.5,13.3
	c0.1,1,1,1.7,2,1.7h8.2c1,0,1.8-0.7,2-1.7L19.6,7H4.4z"/>
</svg>
